{
	"asset":{
		"generator":"Khronos glTF Blender I/O v3.5.30",
		"version":"2.0"
	},
	"scene":0,
	"scenes":[
		{
			"name":"Scene",
			"nodes":[
				0,
				1,
				19,
				20
			]
		}
	],
	"nodes":[
		{
			"mesh":0,
			"name":"tentaculeMesh",
			"rotation":[
				-0.20573130249977112,
				-0.15533018112182617,
				-0.6604041457176208,
				0.7052755355834961
			],
			"scale":[
				1.9999998807907104,
				1,
				1
			],
			"translation":[
				16.70071029663086,
				1.471104621887207,
				17.50071907043457
			]
		},
		{
			"name":"BezierCircle",
			"rotation":[
				0.043619390577077866,
				0,
				0,
				0.9990482330322266
			],
			"scale":[
				6,
				6,
				6
			],
			"translation":[
				19.512163162231445,
				42.640907287597656,
				3.113203525543213
			]
		},
		{
			"name":"Bone.016",
			"rotation":[
				0.029222777113318443,
				0.0019033391727134585,
				-0.03485150635242462,
				0.9989634156227112
			],
			"scale":[
				0.9999999403953552,
				0.9999998807907104,
				0.9999998211860657
			],
			"translation":[
				0,
				0.9142229557037354,
				-1.1920928955078125e-07
			]
		},
		{
			"children":[
				2
			],
			"name":"Bone.015",
			"rotation":[
				0.07118987292051315,
				0.006616956554353237,
				-0.010226492770016193,
				0.9973884224891663
			],
			"scale":[
				1,
				1.0000001192092896,
				1
			],
			"translation":[
				-4.76837158203125e-07,
				0.7464081645011902,
				-4.172325134277344e-07
			]
		},
		{
			"children":[
				3
			],
			"name":"Bone.014",
			"rotation":[
				0.09208923578262329,
				-0.016946855932474136,
				-0.027000032365322113,
				0.9952403903007507
			],
			"translation":[
				4.172325134277344e-07,
				0.6678835153579712,
				-7.450580596923828e-08
			]
		},
		{
			"children":[
				4
			],
			"name":"Bone.013",
			"rotation":[
				0.08516307175159454,
				0.0006931445677764714,
				0.0033839645329862833,
				0.9963610768318176
			],
			"scale":[
				0.9999999403953552,
				1,
				1
			],
			"translation":[
				2.384185791015625e-07,
				0.6172730326652527,
				1.341104507446289e-07
			]
		},
		{
			"children":[
				5
			],
			"name":"Bone.012",
			"rotation":[
				0.08271308243274689,
				0.009944375604391098,
				0.03411470353603363,
				0.9959396719932556
			],
			"translation":[
				5.960464477539063e-08,
				0.7054315805435181,
				-8.195638656616211e-08
			]
		},
		{
			"children":[
				6
			],
			"name":"Bone.011",
			"rotation":[
				0.07958535104990005,
				0.005837268196046352,
				0.01915760338306427,
				0.9966268539428711
			],
			"translation":[
				1.4901161193847656e-07,
				0.7822599411010742,
				3.961613401770592e-07
			]
		},
		{
			"children":[
				7
			],
			"name":"Bone.010",
			"rotation":[
				0.11813528835773468,
				0.07522806525230408,
				0.02284902334213257,
				0.9898802042007446
			],
			"scale":[
				0.9999999403953552,
				1,
				0.9999999403953552
			],
			"translation":[
				4.470348358154297e-08,
				0.7816886901855469,
				-5.466863512992859e-07
			]
		},
		{
			"children":[
				8
			],
			"name":"Bone.009",
			"rotation":[
				0.062422558665275574,
				0.004216711036860943,
				0.022579003125429153,
				0.9977854490280151
			],
			"scale":[
				1,
				0.9999998807907104,
				1
			],
			"translation":[
				4.470348358154297e-08,
				0.5346885919570923,
				3.241002559661865e-07
			]
		},
		{
			"children":[
				9
			],
			"name":"Bone.008",
			"rotation":[
				0.03983606770634651,
				-0.013804690912365913,
				0.03671998530626297,
				0.9984358549118042
			],
			"scale":[
				1.0000001192092896,
				1,
				1.0000001192092896
			],
			"translation":[
				2.384185791015625e-07,
				0.9112712740898132,
				1.9371509552001953e-07
			]
		},
		{
			"children":[
				10
			],
			"name":"Bone.007",
			"rotation":[
				0.0414167195558548,
				-0.23148928582668304,
				0.04613850638270378,
				0.970859706401825
			],
			"scale":[
				0.9999999403953552,
				1,
				0.9999998807907104
			],
			"translation":[
				4.76837158203125e-07,
				0.6718771457672119,
				-2.682209014892578e-07
			]
		},
		{
			"children":[
				11
			],
			"name":"Bone.006",
			"rotation":[
				-0.03726131096482277,
				-0.0012036060215905309,
				0.03169248253107071,
				0.9988021850585938
			],
			"scale":[
				0.9999999403953552,
				0.9999998211860657,
				0.9999998807907104
			],
			"translation":[
				1.1920928955078125e-07,
				0.761747419834137,
				2.682209014892578e-07
			]
		},
		{
			"children":[
				12
			],
			"name":"Bone.005",
			"rotation":[
				-0.01879110559821129,
				0.04674103111028671,
				0.02487514726817608,
				0.9984204769134521
			],
			"translation":[
				2.384185791015625e-07,
				0.6300460696220398,
				1.4901161193847656e-08
			]
		},
		{
			"children":[
				13
			],
			"name":"Bone.004",
			"rotation":[
				0.012846321798861027,
				0.0007255110540427268,
				0.031601570546627045,
				0.9994177222251892
			],
			"scale":[
				1,
				1.0000001192092896,
				1
			],
			"translation":[
				5.960464477539063e-08,
				0.6696018576622009,
				3.725290298461914e-07
			]
		},
		{
			"children":[
				14
			],
			"name":"Bone.003",
			"rotation":[
				-0.0689902976155281,
				-0.001996749546378851,
				-0.006157240364700556,
				0.9975963234901428
			],
			"scale":[
				1,
				0.9999998211860657,
				0.9999999403953552
			],
			"translation":[
				0,
				0.727358877658844,
				7.450580596923828e-08
			]
		},
		{
			"children":[
				15
			],
			"name":"Bone.002",
			"rotation":[
				-0.0822354257106781,
				0.0025802506133913994,
				0.041530683636665344,
				0.9957439303398132
			],
			"scale":[
				1.0000001192092896,
				0.9999999403953552,
				0.9999999403953552
			],
			"translation":[
				-2.980232238769531e-07,
				0.7465491890907288,
				-5.364418029785156e-07
			]
		},
		{
			"children":[
				16
			],
			"name":"Bone.001",
			"rotation":[
				0.017715083435177803,
				0.012449981644749641,
				0.028815079480409622,
				0.9993501901626587
			],
			"scale":[
				1,
				1.0000001192092896,
				1.0000001192092896
			],
			"translation":[
				-2.384185791015625e-07,
				1.021235704421997,
				3.427267074584961e-07
			]
		},
		{
			"children":[
				17
			],
			"name":"Bone",
			"rotation":[
				-0.6381596922874451,
				0.12655353546142578,
				-0.7592043280601501,
				0.018578695133328438
			],
			"scale":[
				1,
				0.9999999403953552,
				1
			],
			"translation":[
				3.8661723136901855,
				5.828798770904541,
				-3.6758487224578857
			]
		},
		{
			"children":[
				18
			],
			"name":"Armature.001",
			"scale":[
				3,
				3,
				3
			],
			"translation":[
				5.647546768188477,
				0.607075572013855,
				9.483492851257324
			]
		},
		{
			"mesh":1,
			"name":"Mball.002",
			"rotation":[
				0,
				0.6735443472862244,
				0,
				0.739146888256073
			],
			"scale":[
				12,
				10,
				12
			],
			"translation":[
				12.206914901733398,
				34.78152084350586,
				1.0573663711547852
			]
		}
	],
	"materials":[
		{
			"doubleSided":true,
			"name":"Material.001",
			"pbrMetallicRoughness":{
				"baseColorFactor":[
					0.800000011920929,
					0.800000011920929,
					0.800000011920929,
					1
				],
				"metallicFactor":0,
				"roughnessFactor":0.5
			}
		}
	],
	"meshes":[
		{
			"name":"Cube.002",
			"primitives":[
				{
					"attributes":{
						"POSITION":0,
						"TEXCOORD_0":1,
						"NORMAL":2
					},
					"indices":3,
					"material":0
				}
			]
		},
		{
			"name":"Mball",
			"primitives":[
				{
					"attributes":{
						"POSITION":4,
						"NORMAL":5
					},
					"indices":6
				}
			]
		}
	],
	"skins":[
		{
			"inverseBindMatrices":7,
			"joints":[
				18,
				17,
				16,
				15,
				14,
				13,
				12,
				11,
				10,
				9,
				8,
				7,
				6,
				5,
				4,
				3,
				2
			],
			"name":"Armature.001"
		}
	],
	"accessors":[
		{
			"bufferView":0,
			"componentType":5126,
			"count":15808,
			"max":[
				5.087108612060547,
				22.2290096282959,
				-2.6049365997314453
			],
			"min":[
				-13.182499885559082,
				-12.742315292358398,
				-37.56871795654297
			],
			"type":"VEC3"
		},
		{
			"bufferView":1,
			"componentType":5126,
			"count":15808,
			"type":"VEC2"
		},
		{
			"bufferView":2,
			"componentType":5126,
			"count":15808,
			"type":"VEC3"
		},
		{
			"bufferView":3,
			"componentType":5123,
			"count":24096,
			"type":"SCALAR"
		},
		{
			"bufferView":4,
			"componentType":5126,
			"count":166,
			"max":[
				1.1151094436645508,
				1.1151089668273926,
				1.1664855480194092
			],
			"min":[
				-1.1151094436645508,
				-1.7625806331634521,
				-1.1151094436645508
			],
			"type":"VEC3"
		},
		{
			"bufferView":5,
			"componentType":5126,
			"count":166,
			"type":"VEC3"
		},
		{
			"bufferView":6,
			"componentType":5123,
			"count":984,
			"type":"SCALAR"
		},
		{
			"bufferView":7,
			"componentType":5126,
			"count":17,
			"type":"MAT4"
		}
	],
	"bufferViews":[
		{
			"buffer":0,
			"byteLength":189696,
			"byteOffset":0,
			"target":34962
		},
		{
			"buffer":0,
			"byteLength":126464,
			"byteOffset":189696,
			"target":34962
		},
		{
			"buffer":0,
			"byteLength":189696,
			"byteOffset":316160,
			"target":34962
		},
		{
			"buffer":0,
			"byteLength":48192,
			"byteOffset":505856,
			"target":34963
		},
		{
			"buffer":0,
			"byteLength":1992,
			"byteOffset":554048,
			"target":34962
		},
		{
			"buffer":0,
			"byteLength":1992,
			"byteOffset":556040,
			"target":34962
		},
		{
			"buffer":0,
			"byteLength":1968,
			"byteOffset":558032,
			"target":34963
		},
		{
			"buffer":0,
			"byteLength":1088,
			"byteOffset":560000
		}
	],
	"buffers":[
		{
			"byteLength":561088,
			"uri":"data:application/octet-stream;base64,"
		}
	]
}
